PathFileType	4	(X/Y/Z)	Patient4_TMGait_0pt4_01_left_36.trc.trc
DataRate	CameraRate	NumFrames	NumMarkers	Units	OrigDataRate	OrigDataStartFrame	OrigNumFrames
73.684210526316	73.684210526316	4	33	mm	73.684210526316	36	       141
Frame#	Time	Sacral			L.Shoulder			Chest			R.Shoulder			Neck			R.ASIS			L.ASIS			R.Thigh.Superior			R.Thigh.Lateral			R.Thigh.Inferior			R.Patella			L.Thigh.Superior			L.Thigh.Lateral			L.Thigh.Inferior			L.Patella			L.Shank.Superior			L.Shank.Lateral			L.Shank.Inferior			R.Shank.Superior			R.Shank.Lateral			R.Shank.Inferior			R.Heel			R.Midfoot.Superior			R.Midfoot.Lateral			R.Toe			L.Heel			L.Midfoot.Lateral			L.Midfoot.Superior			L.Toe			L.Elbow			L.Wrist			R.Elbow			R.Wrist			
		X1	Y1	Z1	X2	Y2	Z2	X3	Y3	Z3	X4	Y4	Z4	X5	Y5	Z5	X6	Y6	Z6	X7	Y7	Z7	X8	Y8	Z8	X9	Y9	Z9	X10	Y10	Z10	X11	Y11	Z11	X12	Y12	Z12	X13	Y13	Z13	X14	Y14	Z14	X15	Y15	Z15	X16	Y16	Z16	X17	Y17	Z17	X18	Y18	Z18	X19	Y19	Z19	X20	Y20	Z20	X21	Y21	Z21	X22	Y22	Z22	X23	Y23	Z23	X24	Y24	Z24	X25	Y25	Z25	X26	Y26	Z26	X27	Y27	Z27	X28	Y28	Z28	X29	Y29	Z29	X30	Y30	Z30	X31	Y31	Z31	X32	Y32	Z32	X33	Y33	Z33	

36	45.315000000000	826.340156768404	1006.475489595862	492.856752817967	971.944520487078	1431.290273769065	289.525694190919	1097.150691034000	1367.676729579742	436.105930756278	1036.605453512004	1441.586450240852	619.071625635898	974.974086972811	1495.081794938838	446.082716937241	1064.328777329562	939.400386428496	583.315327788078	1022.025133103677	962.307810556460	312.679064818690	1066.139077789135	726.484566868729	562.286029151320	968.148996240268	630.486047814943	630.491231704004	1031.300482776375	562.952111334739	552.402558614729	1012.586991810230	466.573645509874	566.439094558618	1092.360687221739	764.725374918681	340.157003393973	1016.669854768560	637.683262463016	283.192082958399	1115.385017919526	570.897220641540	338.682428754271	1125.004320682936	501.079553713933	345.892655812399	1102.663243108267	427.463247560982	339.049235426306	1019.388208406639	307.079230130872	293.652061093218	1084.196285392965	198.592007571118	356.919529374807	952.142397007511	393.065043808077	575.406848111482	848.809120214580	322.823168513120	640.804376274265	858.114806586852	215.801389877673	583.305917475176	679.975591334553	86.940911814221	558.441924228707	856.977303998288	100.672053332597	591.040252823140	759.815090784748	56.511344798416	629.614865228807	963.509285705871	37.138324888426	616.820700773600	969.803754691559	39.362389336706	404.987533584785	1037.691529704186	36.945605873013	319.377983646534	1122.737202453439	97.943694229571	339.828658338247	1248.833533338514	43.487766718313	301.483839881634	910.160325326474	1081.730455229658	181.951396406226	998.173130167089	835.478413326643	159.214363168977	1098.609557020740	1096.640602539182	737.889790561829	1286.504525057321	926.428152015213	687.653610004890	
37	45.328571428571	826.831816324898	1007.388453538961	489.168483285882	974.294927221941	1432.452948622452	286.520340644321	1098.607624049078	1368.279224632155	433.592016851310	1037.337709448791	1441.913908724868	616.421659615219	976.586893333276	1495.904353839610	443.211931201846	1064.255344591122	940.251507529941	580.286795758537	1023.005941455990	962.966916841337	309.576812869761	1069.179582660211	727.673153271724	559.889583585465	972.880718776247	630.601107145617	628.288745600393	1037.713325824238	563.445422236190	550.682023415044	1019.973550969999	465.572653981226	566.117432260491	1091.590268924660	764.030751114955	336.244206997147	1013.654229028249	637.639744056028	280.816222937879	1111.817425078332	570.040460534022	335.890014676050	1120.708482791717	500.554910764199	343.785896074088	1098.369968545398	427.076271370824	337.225669157661	1014.751721082288	306.758514388845	292.302765305685	1079.193680887189	198.402573069213	356.217294664788	957.287004993397	393.149988573914	574.846834685705	851.799949102922	325.961026268273	640.018935323808	858.924358420753	218.311872638887	583.477059521708	677.427999244998	94.702511527112	558.929983097603	854.761037223370	101.992454110835	591.545823231916	756.094603165019	60.984421821109	629.752507037607	958.324496842968	36.787258251961	616.751700533852	964.395589301428	39.308047558069	404.932546291650	1032.237697516281	36.822994680770	319.240102150426	1117.302012672074	97.838100010037	339.647251881831	1243.441607306217	43.306908766756	301.360578554578	914.680769571471	1083.060041023663	176.743431783866	1008.252600991206	838.886658429735	153.382623773239	1092.402399299390	1095.411711913117	734.682362589176	1266.766522622311	908.835470852924	690.400493246799	
38	45.342142857143	827.160298934723	1008.118824896686	485.581724102204	976.606505097196	1433.449376290735	283.563468989040	1099.960840661498	1368.720938143617	431.173978804918	1037.902907209923	1442.080615048602	613.852421278524	978.091237423348	1496.572305166459	440.393643298747	1064.084403466457	940.982589945458	577.381192072212	1023.855177596833	963.481995099818	306.556860761456	1072.728071823813	728.913311397794	557.451288982412	978.463657802998	630.548116027437	626.080569281741	1045.059493223406	563.965163560203	548.868265319361	1028.355670065833	464.590938614357	565.628470163550	1090.609229933880	763.181634336514	332.543598286522	1010.656480341873	637.588615561260	278.383839560988	1108.159737652963	569.179707277334	333.228885144561	1116.293418171004	499.966472855846	341.635719620709	1093.949901381757	426.625777561785	335.330979025498	1009.953712272780	306.368179609405	290.925463320334	1074.087936271118	198.155748844733	355.458085505211	963.442242482646	393.216333697199	574.173981318621	855.862785439230	329.312026805097	639.209696551745	860.465971143127	221.133635629750	583.601737404567	675.552030557854	103.533527921520	559.457275652013	852.969483672988	103.702895648134	592.068285923751	752.780556156944	66.340409116506	629.963336582224	953.165912828992	36.290042307212	616.718385090415	958.912801043151	39.224135964469	404.891886419345	1026.711873878523	36.673493384514	319.109016832120	1111.799809246547	97.694117771664	339.479576493395	1237.986651133650	43.105005064534	301.281103648621	919.097810987405	1084.315634423500	171.452013541407	1018.384433999272	842.432542654673	147.512538608616	1085.763175022856	1094.221269920020	731.512639157047	1245.730008922488	892.911664428687	693.412691125410	
39	45.355714285714	827.297036693008	1008.664592026283	482.126601490195	978.842631207616	1434.254832153362	280.682624725198	1101.195769353115	1368.984911727868	428.866890936514	1038.309910570006	1442.090278083610	611.379759853707	979.481910180513	1497.078168555204	437.641839680849	1063.808722833602	941.580921602553	574.608124908295	1024.540725480716	963.853521579866	303.628726091096	1076.723052515216	730.241813421835	554.950916642382	984.857638796641	630.381951905906	623.866488886753	1053.251271432456	564.576356632669	546.928144264647	1037.667312208769	463.710904419964	564.913336913551	1089.463966826892	762.256894691580	329.113183533818	1007.766521538145	637.549209109385	275.926192873730	1104.523020088656	568.345759205609	330.714906873723	1111.883060886834	499.334816921594	339.480925720488	1089.514363047179	426.125173433536	333.404307854980	1005.102895308128	305.941088267651	289.520941545996	1068.942377007325	197.865366180921	354.651692581014	970.565823501873	393.322860364737	573.348693084883	860.993298446364	332.916962798104	638.360417353147	862.745468965307	224.328750253466	583.660370575668	674.447485736760	113.489777086772	560.022456536017	851.639667719839	105.909291945799	592.593202530475	749.961506700492	72.675108493248	630.250092701856	948.072786342018	35.622615819308	616.728154888745	953.386956345858	39.124023741714	404.848073408243	1021.147279954432	36.512144936856	318.972302713386	1106.259527409551	97.532949657054	339.311616629307	1232.498041332316	42.902142794195	301.228172564013	923.470673007565	1085.461291228467	166.106023853807	1028.556422045189	846.069306235838	141.625165538678	1078.531177151376	1093.087938629633	728.495065089803	1223.607193483358	878.873829320721	696.640049967588	
